<svg width="172" height="20" viewBox="0 0 172 20" fill="none" xmlns="http://www.w3.org/2000/svg">
    <path d="M165.681 0.948486V4.33739H166.649V0.948486L167.618 4.33739H169.632L170.6 0.948486V4.33739H171.568V0.948486H169.593L168.625 4.33739L167.656 0.948486H165.681ZM162.641 1.91675C163.009 1.91675 163.425 1.72309 163.687 1.47135L163.706 1.49071C163.454 1.75214 163.26 2.16849 163.26 2.53643V4.33739H164.229V2.53643C164.229 2.16849 164.035 1.75214 163.783 1.49071L163.803 1.47135C164.064 1.72309 164.481 1.91675 164.848 1.91675H165.197V0.948486H162.292V1.91675H162.641Z" fill="#29073d"/>
    <path d="M0 1.08118H15.3015V3.61859H8.9259V18.8431H6.37564V3.61859H0V1.08118Z" fill="#29073d"/>
    <path d="M16.6401 1.08118H19.1904V18.8431H16.6401V1.08118Z" fill="#29073d"/>
    <path d="M21.6772 1.08118H27.0328L35.0661 18.8431V1.08118H37.6164V18.8431H32.2608L24.2275 1.08118V18.8431H21.6772V1.08118Z" fill="#29073d"/>
    <path d="M38.1267 1.08118H41.0595L45.3949 9.2009C46.0963 10.533 46.5426 12.4361 46.5426 13.9585H46.6063C46.6063 12.4995 47.0526 10.533 47.7539 9.2009L52.1531 1.08118H55.0222L47.8177 14.3392V18.8431H45.2674V14.3392L38.1267 1.08118Z" fill="#29073d"/>
    <path d="M75.5769 1.05579H90.8785V3.5932H84.5028V18.8177H81.9525V3.5932H75.5769V1.05579Z" fill="#29073d"/>
    <path d="M92.2439 1.05579H94.7942V14.06C94.7942 15.5825 95.878 16.6609 97.3444 16.6609C98.8108 16.6609 99.8947 15.519 99.8947 14.06V1.05579H102.445V13.9966C102.445 16.9146 100.213 19.1983 97.4082 19.1983C94.6029 19.1983 92.3077 16.9146 92.3077 13.9966V1.05579H92.2439Z" fill="#29073d"/>
    <path d="M104.394 1.05579H111.918C116.891 1.05579 120.716 4.98878 120.716 10.0002C120.716 15.0116 116.891 18.8177 111.918 18.8177H104.394V1.05579ZM106.945 3.5932V16.2803H111.981C115.552 16.2803 118.166 13.616 118.166 10.0002C118.166 6.38435 115.488 3.5932 111.981 3.5932H106.945Z" fill="#29073d"/>
    <path d="M122.374 1.05579H124.925V18.8177H122.374V1.05579Z" fill="#29073d"/>
    <path d="M135.89 0.675049C141.182 0.675049 145.199 4.67147 145.199 9.93661C145.199 15.2017 141.182 19.1982 135.89 19.1982C130.599 19.1982 126.582 15.2017 126.582 9.93661C126.582 4.67147 130.599 0.675049 135.89 0.675049ZM135.89 16.6608C139.716 16.6608 142.649 13.7427 142.649 9.93661C142.649 6.13049 139.716 3.21246 135.89 3.21246C132.065 3.21246 129.132 6.13049 129.132 9.93661C129.132 13.7427 132.065 16.6608 135.89 16.6608Z" fill="#29073d"/>
    <path d="M74.3013 2.45128V4.98869C74.3013 4.98869 73.2812 3.27594 68.882 3.27594C67.0968 3.27594 64.164 3.97373 64.164 6.2574C64.164 10.3173 75.1301 7.46267 75.1301 13.8696C75.1301 17.8026 71.241 19.3251 67.8619 19.3251C65.7579 19.3251 63.5902 18.7542 61.8688 17.5489V14.3771C61.8688 14.3771 62.9527 16.7242 67.9257 16.7242C69.5833 16.7242 72.5799 16.1533 72.5799 13.9965C72.5799 10.1904 61.6138 12.8547 61.6138 6.38427C61.6138 2.45128 65.2479 0.738525 68.7545 0.738525C70.5397 0.738525 72.9624 1.18257 74.3013 2.45128Z" fill="#29073d"/>
    <path d="M159.097 2.45128V4.98869C159.097 4.98869 158.077 3.27594 153.678 3.27594C151.893 3.27594 148.96 3.97373 148.96 6.2574C148.96 10.3173 159.926 7.46267 159.926 13.8696C159.926 17.8026 156.037 19.3251 152.658 19.3251C150.554 19.3251 148.386 18.7542 146.665 17.5489V14.3771C146.665 14.3771 147.749 16.7242 152.722 16.7242C154.379 16.7242 157.376 16.1533 157.376 13.9965C157.376 10.1904 146.41 12.8547 146.41 6.38427C146.41 2.45128 150.044 0.738525 153.55 0.738525C155.336 0.738525 157.758 1.18257 159.097 2.45128Z" fill="#29073d"/>
</svg>